<svg xmlns="http://www.w3.org/2000/svg" width="736" height="736" style="shape-rendering:geometricPrecision;text-rendering:geometricPrecision;image-rendering:optimizeQuality;fill-rule:evenodd;clip-rule:evenodd"><path fill="#aba0b9" d="m374.5 112.5 10 13a8.4 8.4 0 0 1-4-.5q-.982-2.23-3-3.5l-1 2a83.3 83.3 0 0 1 8.5 24q2.176 2.946 5.5 4-2.99 1.555-6-1a74 74 0 0 0-1.5 12l-3 3a167 167 0 0 1-6.5 13 194 194 0 0 0 4-19q2.249-6.386 3-13.5a319 319 0 0 0-10.5-26.5 25 25 0 0 1-.5-7z" style="opacity:1"/><path fill="#d8d6de" d="M374.5 112.5h-5q-.245 3.535.5 7a319 319 0 0 1 10.5 26.5q-.751 7.114-3 13.5a65 65 0 0 0-1-16q-.713-3.983-4-6 .166-.925 1-1.5-6.757-1.416-7-8.5-4.562-.568-7.5-4-1.978 2.98-5.5 3.5-3.873 5.952-11 7.5a37 37 0 0 1-10 7.5l1 1q-4.979 2.973-6.5 8.5l-1-2q-.02 5.106-4 8-2.619 3.514.5 6-2.416 4.08-2.5 9l-1-6q-3.012 8.472-3.5 17-2.676-1.61-3.5-5-2.698 3.495-6.5 6a247 247 0 0 0-2-7v-6a41 41 0 0 0-.5-9q-1.665 2.305-4.5 2 3.033-6.796 9-11.5a330 330 0 0 0 38-32q-1.244-2.197-.5-4.5 9.4-4.192 16-12a4.93 4.93 0 0 0 .5-3 8.4 8.4 0 0 1 4 .5 692 692 0 0 1 9 10.5" style="opacity:.997"/><path fill="#e7e8ef" d="M372.5 137.5q-7.094-1.339-14-1-4.635 1.28-7.5 5-1.077-1.426-2.5-.5l-3 5q-5.395 1.067-8.5 5.5a11.2 11.2 0 0 0-4.5-1 115 115 0 0 0-8 16q3.792 1.526 0 3.5 5.86.093 10.5 3.5 4.803-2.613 7.5 2 4.995 2.492 10 5a26.6 26.6 0 0 1 2 3.5q2.882.54 5 2.5-1.708 3.844 3 4 2.824-.564 4.5-3a55 55 0 0 1 2-7q1.718-.178 3.5-1a51.6 51.6 0 0 1-1 7q.476 4.57-4 5-4.133 2.892-7 7.5-4.809 3.013-7-2.5-2.51-1.178-4.5-5l-1 1-1-4a3.65 3.65 0 0 1-1.5 1 15.7 15.7 0 0 0-4-2.5 73.4 73.4 0 0 1-11.5-1.5 9.6 9.6 0 0 1-3 3 31.6 31.6 0 0 0-7.5-2v-3h-4q.488-8.528 3.5-17l1 6q.084-4.92 2.5-9-3.119-2.486-.5-6 3.98-2.894 4-8l1 2q1.521-5.527 6.5-8.5l-1-1a37 37 0 0 0 10-7.5q7.127-1.548 11-7.5 3.522-.52 5.5-3.5 2.938 3.432 7.5 4 .243 7.084 7 8.5-.834.575-1 1.5" style="opacity:1"/><path fill="#8a72a1" d="M384.5 125.5q10.959 11.46 22 23 .342 2.782-2 2.5-7.921-10.68-19-17.5a4.46 4.46 0 0 0-2 1.5q3.72 9.881 12 17-.834.575-1 1.5l-4-2q-3.324-1.054-5.5-4a83.3 83.3 0 0 0-8.5-24l1-2q2.018 1.27 3 3.5a8.4 8.4 0 0 0 4 .5" style="opacity:1"/><path fill="#f0f1f6" d="M372.5 137.5q3.287 2.017 4 6a65 65 0 0 1 1 16 194 194 0 0 1-4 19q0 1-1 1-1.782.822-3.5 1a55 55 0 0 0-2 7q-1.676 2.436-4.5 3-4.708-.156-3-4-2.118-1.96-5-2.5a26.6 26.6 0 0 0-2-3.5q-5.005-2.508-10-5-2.697-4.613-7.5-2-4.64-3.407-10.5-3.5 3.792-1.974 0-3.5a115 115 0 0 1 8-16q2.34.028 4.5 1 3.105-4.433 8.5-5.5l3-5q1.423-.926 2.5.5 2.865-3.72 7.5-5 6.906-.339 14 1" style="opacity:1"/><path fill="#7b6198" d="m406.5 148.5 16 17q1.077 2.455.5 5-1.875-1.61-4 0a107 107 0 0 1-18.5-11q-3.573-1.276-6-4 1.509-.656 0-2 .166-.925 1-1.5-8.28-7.119-12-17a4.46 4.46 0 0 1 2-1.5q11.079 6.82 19 17.5 2.342.282 2-2.5" style="opacity:1"/><path fill="#877b93" d="m390.5 151.5 4 2q1.509 1.344 0 2-3.92.893 0 2.5-1.666 6.666-7 11a4.93 4.93 0 0 1-3 .5q.072 4.188-4 5.5l1 1q-4.936 4.666-8 10.5h-2a51.6 51.6 0 0 0 1-7q1 0 1-1 3.464-6.22 6.5-13l3-3a74 74 0 0 1 1.5-12q3.01 2.555 6 1" style="opacity:1"/><path fill="#745f85" d="M394.5 155.5q2.427 2.724 6 4-.427 5.307 5 5.5-1.268 2.337 2 3-.055 4.073-5 5 1.663 2.72-2 2.5.426 2.872-1 5-2.806.538-4.5 3a4.93 4.93 0 0 1-.5-3h-3q.06 5.953-5 3-3.383 3.437-6.5 0-3.175 1.02-6.5 3 3.064-5.834 8-10.5l-1-1q4.072-1.312 4-5.5a4.93 4.93 0 0 0 3-.5q5.334-4.334 7-11-3.92-1.607 0-2.5" style="opacity:1"/><path fill="#6f5587" d="M400.5 159.5a107 107 0 0 0 18.5 11q2.125-1.61 4 0 .577-2.545-.5-5a186 186 0 0 1 13.5 14q2.338 2.576 2.5 6-6.713.366-8-6l-3-2q-5.09 5.752-10.5 0a15.8 15.8 0 0 1-3.5 5.5l3 1a26.7 26.7 0 0 0-1.5 6.5 9.2 9.2 0 0 0-4.5-2q-4.88 3.8-5-3-2.466.32-4.5-1l-2 2q.203-2.888.5-6 1.426-2.128 1-5 3.663.22 2-2.5 4.945-.927 5-5-3.268-.663-2-3-5.427-.193-5-5.5" style="opacity:1"/><path fill="#7e6397" d="M399.5 180.5a240 240 0 0 0-.5 6l2-2q2.034 1.32 4.5 1 .12 6.8 5 3 .679 1.438 2 2.5-3.351 1.85-4.5 5.5-3.699-1.915-7.5 0-.702 2.45-3 3.5a99.7 99.7 0 0 1 18 8.5 7.5 7.5 0 0 1 2 3 32.6 32.6 0 0 1-10-4 669 669 0 0 0-31-14q-3.5.5-1 3a7.3 7.3 0 0 0-2 3 24.8 24.8 0 0 1 1 8q-3.112-5.967-4-13-.564-3.455-3-1v-2q4.476-.43 4-5h2q3.325-1.98 6.5-3 3.117 3.437 6.5 0 5.06 2.953 5-3h3a4.93 4.93 0 0 0 .5 3q1.694-2.462 4.5-3" style="opacity:1"/><path fill="#dcd7ec" d="M303.5 177.5a247 247 0 0 1 2 7q3.802-2.505 6.5-6 .824 3.39 3.5 5h4v3a31.6 31.6 0 0 1 7.5 2 9.6 9.6 0 0 0 3-3 73.4 73.4 0 0 0 11.5 1.5q2.2.953 4 2.5a3.65 3.65 0 0 0 1.5-1l1 4 1-1q1.99 3.822 4.5 5 .518 3.848-4 5.5 2.483 2.166 2 5.5a72.4 72.4 0 0 1-12-.5q-11.232-10.494-26.5-11.5a52.3 52.3 0 0 1-9 8q-2.914-4.821-2.5-10.5a125 125 0 0 1 2-15.5" style="opacity:1"/><path fill="#765995" d="M438.5 185.5q2.637 5.031 3 11-.975.456-2 1-3.004-2.45-4-6h-3q-.384 3.438 1 6.5a38 38 0 0 1-7 2.5q-6.134 3.402-9 8.5a14.3 14.3 0 0 1 6.5 2.5q2.439-.531 5.5 0 1.317-6.187 5-1.5a67 67 0 0 0-2 5.5q2.855 3.094 7 4 1.937 1.54 0 3-7.06-5.203-16-7l-6-4a7.5 7.5 0 0 0-2-3 99.7 99.7 0 0 0-18-8.5q2.298-1.05 3-3.5 3.801-1.915 7.5 0 1.149-3.65 4.5-5.5-1.321-1.062-2-2.5 2.505.377 4.5 2a26.7 26.7 0 0 1 1.5-6.5l-3-1a15.8 15.8 0 0 0 3.5-5.5q5.41 5.752 10.5 0l3 2q1.287 6.366 8 6" style="opacity:1"/><path fill="#d3c8e8" d="M303.5 171.5v6a125 125 0 0 0-2 15.5q-.414 5.679 2.5 10.5a52.3 52.3 0 0 0 9-8q15.268 1.006 26.5 11.5 5.979.749 12 .5.483-3.334-2-5.5 4.518-1.652 4-5.5 2.191 5.513 7 2.5 2.867-4.608 7-7.5v2a80.3 80.3 0 0 1-10 14 4.93 4.93 0 0 0-3 .5 62.4 62.4 0 0 1-11 10.5q-3.918-.644-4.5-3-3.113 1.967-4-2-3.912 5.082-9.5 1.5a115 115 0 0 1-3-6.5q-6.633-.211-11-5a377 377 0 0 0-4.5 5q-1.517-1.255-3.5-1-.426 4.915 1 9.5a20.4 20.4 0 0 0-1.5 5.5q-2.034 1.32-4.5 1a227 227 0 0 0-1-9.5 266 266 0 0 0 3-38.5q.448-2.933 3-4" style="opacity:1"/><path fill="#654772" d="M407.5 207.5h-8q-.646 8.292 2 16-2.13 3.58-3 8a3.65 3.65 0 0 1-1.5-1q-.183 2.905-2.5 4-4.614-8.693-11.5-16a18.5 18.5 0 0 0-.5 6 83 83 0 0 1-3.5-10 7.3 7.3 0 0 1-2-3q-1.006 1.129-2.5 1v-5a24.8 24.8 0 0 0-1-8 7.3 7.3 0 0 1 2-3q-2.5-2.5 1-3a669 669 0 0 1 31 14" style="opacity:1"/><path fill="#725297" d="M441.5 196.5q5.469 18.85 11 38a36 36 0 0 0-2 4.5q-3.465.745-7 .5-.957-2.94 0-5.5a33.5 33.5 0 0 1-4-11.5q1.937-1.46 0-3-4.145-.906-7-4a67 67 0 0 1 2-5.5q-3.683-4.687-5 1.5-3.061-.531-5.5 0a14.3 14.3 0 0 0-6.5-2.5q2.866-5.098 9-8.5a38 38 0 0 0 7-2.5q-1.384-3.062-1-6.5h3q.996 3.55 4 6 1.025-.544 2-1" style="opacity:1"/><path fill="#c1b3dc" d="M300.5 175.5a266 266 0 0 1-3 38.5q.601 4.75 1 9.5 2.466.32 4.5-1a20.4 20.4 0 0 1 1.5-5.5q-1.426-4.585-1-9.5 1.983-.255 3.5 1 2.265-2.561 4.5-5 4.367 4.789 11 5a115 115 0 0 0 3 6.5q5.588 3.582 9.5-1.5.887 3.967 4 2 .582 2.356 4.5 3a62.4 62.4 0 0 0 11-10.5 4.93 4.93 0 0 1 3-.5 27.2 27.2 0 0 1-6 8q-6.696 1.197-7 8-5.203-.919-6 4h-3v-4a76 76 0 0 1-8.5-4q-7.545 3.263-.5 4.5a679 679 0 0 1-7 7l-7.5 1.5q-2.841-.059-3-2-2.743 1.45-5.5.5a151 151 0 0 0-3.5 10.5l-1-7q-2.034 1.32-4.5 1 .206 6.144-4.5 10a18.5 18.5 0 0 1-.5-6 401 401 0 0 1 1.5-19 439 439 0 0 0 5.5-25q.546-10.474 4-20" style="opacity:1"/><path fill="#9e89ba" d="M296.5 195.5a439 439 0 0 1-5.5 25 401 401 0 0 0-1.5 19q-1.083.626-1.5 2a335 335 0 0 1-6.5 32 85 85 0 0 0-.5-13l-1 6-1-2q-1.098 3.635-4.5 3.5-.631-7.527-3-12.5a8.4 8.4 0 0 1-4-.5q-2.431-4.726-7-2.5-4.316-3.62 1-5.5a6.3 6.3 0 0 1-1-3q2.04-3.405 2-7.5a46.8 46.8 0 0 0 5-11q6.819-1.063 8.5-8 3.134-3.005 7.5-3.5 1.895-2.558 1-5a4.93 4.93 0 0 1 3-.5q-.404 2.893 1.5 5 1.878-3.77 1.5-8h3a71 71 0 0 1 1.5-9q.574-.834 1.5-1" style="opacity:1"/><path fill="#654a78" d="M423.5 215.5q8.94 1.797 16 7a33.5 33.5 0 0 0 4 11.5q-.957 2.56 0 5.5 3.535.245 7-.5a36 36 0 0 1 2-4.5q6.255 17.466 13 35-1.875-.116-2.5-2-1.036 3.587-3 0-.417 1.374-1.5 2-.332-3.895-1.5 0-6.65-4.954-5-13-3.534-3.71-3-8l-1 1q-4.356-2.59-9.5-2v-3q2.2 1.188 4 0-2.235-5.781-6-10.5a3.65 3.65 0 0 0 1-1.5 66 66 0 0 1-3-11q-2.052-1.64-3.5 1-.926-1.423.5-2.5-4.776-1.131-8-4.5" style="opacity:1"/><path fill="#9780ad" d="M303.5 171.5q-2.552 1.067-3 4-3.454 9.526-4 20-.926.166-1.5 1a71 71 0 0 0-1.5 9h-3q.378 4.23-1.5 8-1.904-2.107-1.5-5a4.93 4.93 0 0 0-3 .5q.895 2.442-1 5-4.366.495-7.5 3.5-1.681 6.937-8.5 8a46.8 46.8 0 0 1-5 11 2.43 2.43 0 0 1-2-.5q2.567-1.7 1.5-4.5-1.647 2.201-4.5 2.5-2.09 1.756-2.5 4.5-1.693 2.462-4.5 3a156 156 0 0 1 7.5-14q20.267-31.542 40.5-63 2.835.305 4.5-2 .747 4.473.5 9" style="opacity:1"/><path fill="#6a4f74" d="M407.5 207.5a32.6 32.6 0 0 0 10 4l6 4q3.224 3.369 8 4.5-1.426 1.077-.5 2.5 1.448-2.64 3.5-1a66 66 0 0 0 3 11 3.65 3.65 0 0 1-1 1.5q3.765 4.719 6 10.5-1.8 1.188-4 0-1.201-2.312-1-5h-5l-1-6a13 13 0 0 1-5.5-1q-1.892.389-3 2-9.482-1.734-11.5-11h-10q-2.646-7.708-2-16z" style="opacity:1"/><path fill="#604568" d="M401.5 223.5h10q2.018 9.266 11.5 11 1.108-1.611 3-2a13 13 0 0 0 5.5 1l1 6h5q-.201 2.688 1 5v3q5.144-.59 9.5 2l1-1q-.534 4.29 3 8-1.65 8.046 5 13 1.168-3.895 1.5 0 .059 2.788-2.5 4l-1-2a7.25 7.25 0 0 1-2.5 2l-6-5q-6.856 5.265-10-2.5 2.656-.803 1-2.5a165 165 0 0 1-15-6.5q-.9-5.154-6-5.5v-4q-5.504 1.204-8-3.5a4.93 4.93 0 0 0-3-.5q-.865 5.37 3 9-.519 1.794-1.5 0a2.43 2.43 0 0 0-.5 2q-5.995-9.988-12-20 2.317-1.095 2.5-4 .621.686 1.5 1 .87-4.42 3-8" style="opacity:1"/><path fill="#623b76" d="M382.5 224.5q2.74 9.954 5.5 20 .745 3.465.5 7h-4q.401 2.398-1 4a486 486 0 0 1-5-21l-4-22q1.494.129 2.5-1a7.3 7.3 0 0 0 2 3 83 83 0 0 0 3.5 10" style="opacity:.485"/><path fill="#aa9ac3" d="M351.5 215.5a167 167 0 0 0-7.5 13 161 161 0 0 1-9.5 11h-4a125 125 0 0 1-8 15q-1.237 1.329-3 1 .32 2.466-1 4.5l-6 2 1 1-4 2q1.137 2.046-1.5 3.5l-1 5a84 84 0 0 1-7.5 9q-1.428 2.318-1 5-5.723.908-11 0v4h3q.674 3.715-2 6-1.393-1.783-1-4-5.264-.462-5-6h-3q.86-7.025 2-14a335 335 0 0 0 6.5-32q.417-1.374 1.5-2a18.5 18.5 0 0 0 .5 6q4.706-3.856 4.5-10 2.466.32 4.5-1l1 7a151 151 0 0 1 3.5-10.5q2.757.95 5.5-.5.159 1.941 3 2l7.5-1.5a679 679 0 0 0 7-7q-7.045-1.237.5-4.5a76 76 0 0 0 8.5 4v4h3q.797-4.919 6-4 .304-6.803 7-8" style="opacity:1"/><path fill="#5b2176" d="M378.5 234.5a486 486 0 0 0 5 21v3q-1.083-.626-1.5-2a7.3 7.3 0 0 1-2 3 12.5 12.5 0 0 0-4-5 4.93 4.93 0 0 1-.5-3h-3v4h-10a118.4 118.4 0 0 1-1-16q-2.975.175-5-2a145 145 0 0 0-12.5 8 86 86 0 0 0-3 10q-1.896 3.16-5.5 3-2.88 5.463-7 10.5a55 55 0 0 0-9 1.5q-.129-1.494 1-2.5 7.306-2.654 11-9.5a3.65 3.65 0 0 0-1-1.5 26.6 26.6 0 0 0 6.5-10.5l1 1q3.119-2.365 4.5-6a7.3 7.3 0 0 0-2-3l1.5-3q2.133-.141 4.5-1 .756-6.452 6.5-5a14.8 14.8 0 0 0 5.5-3 189 189 0 0 1 11 17.5q3.929-.125 8-.5-.465-4.82 1-9" style="opacity:1"/><path fill="#5f2384" d="M374.5 207.5v5l4 22q-1.465 4.18-1 9-4.071.375-8 .5a189 189 0 0 0-11-17.5 14.8 14.8 0 0 1-5.5 3q-5.744-1.452-6.5 5-2.367.859-4.5 1l-1.5 3a7.3 7.3 0 0 1 2 3q-1.381 3.635-4.5 6l-1-1a26.6 26.6 0 0 1-6.5 10.5q.686.621 1 1.5-3.694 6.846-11 9.5-1.129 1.006-1 2.5v1q-5.486-.71-.5-4a8.4 8.4 0 0 0 .5-4 17992 17992 0 0 1 15-24 161 161 0 0 0 9.5-11 167 167 0 0 1 7.5-13 27.2 27.2 0 0 0 6-8 80.3 80.3 0 0 0 10-14q2.436-2.455 3 1 .888 7.033 4 13" style="opacity:1"/><path fill="#9075ad" d="M262.5 236.5q.04 4.095-2 7.5a6.3 6.3 0 0 0 1 3q-5.316 1.88-1 5.5 4.569-2.226 7 2.5a8.4 8.4 0 0 0 4 .5q2.369 4.973 3 12.5 3.402.135 4.5-3.5l1 2 1-6q.749 6.481.5 13-1.14 6.975-2 14h-1q-.648-3.55-2-8-4.899.101-4.5-5l-1 2a19.9 19.9 0 0 0-3.5-4q-.851-4.428-3.5-8-.21-3.032-.5-5.5-2.757.95-5.5-.5-5.858 4.886-6.5-2.5a91 91 0 0 1 3-8.5q-.865-3.075-4-3-6.865 12.664-15.5 25l-1.5 9a4.93 4.93 0 0 0-3 .5l1 1a27 27 0 0 0-3 7.5q-1 0-1 1a46.7 46.7 0 0 1-13 12 18.5 18.5 0 0 1 .5-6 40068 40068 0 0 1 35.5-53q2.807-.538 4.5-3 .41-2.744 2.5-4.5 2.853-.299 4.5-2.5 1.067 2.8-1.5 4.5a2.43 2.43 0 0 0 2 .5" style="opacity:1"/><path fill="#4e2462" d="M378.5 265.5q3.848 6.314 5 14-1.437.679-2.5 2a2188 2188 0 0 0-5-4q-1.616 1.394-3.5 2-.733-4.417-4.5-7l-1-6a52 52 0 0 1-7.5 5q-1.314.197-2-1a32.4 32.4 0 0 1-1.5-6q-.981 1.794-1.5 0a23.8 23.8 0 0 0 1-9q-2.217.393-4-1 .828-2.254 0-5-2.835-.305-4.5 2v8a114.8 114.8 0 0 0-13 21 86.3 86.3 0 0 1-12.5 9.5q3.685 3.238-2 2.5a8.4 8.4 0 0 1-.5 4q-2.76-2-1.5.5-2.98 1.978-3.5 5.5a20.5 20.5 0 0 0-4.5 2.5q2.25 3.932 1 8 4.056 2.77 9 3.5 2.596-.789 4-3a9.86 9.86 0 0 1 6-1q-2.843 2.398-6.5 4-1.026 1.926.5 3.5-1.346 3.19-4 1.5a3.65 3.65 0 0 1 1-1.5q-4.863-1.478-8 2.5a4.46 4.46 0 0 1-1.5-2q.25 6.087-4 10a155 155 0 0 0-11.5 0q-1.647-1.345 0-2.5a4.46 4.46 0 0 1-2-1.5q2.424-8.92 11-12a49.4 49.4 0 0 1-1-11 12.9 12.9 0 0 0 5-.5l7-7q-1.923-4.185 2.5-6.5a20.6 20.6 0 0 0 2-6 15.3 15.3 0 0 1 4.5-1.5q3.152-8.014 11-10.5.538-3.399-2-5.5 5.424-2.939 10-6.5-.41-2.927 2-4.5-1.58-2.082-.5-4.5a47 47 0 0 0 3.5-5.5 4.93 4.93 0 0 1 3-.5v3h3q.94 4.222 4 7.5l-2 2q2.868 1.8 4 5 2.412.987 3.5-1.5l1 2q1.593-2.099 4-3a25.6 25.6 0 0 1 6 6l1-2q1.063 1.321 2.5 2" style="opacity:1"/><path fill="#a68dcc" d="M334.5 239.5a17992 17992 0 0 0-15 24 25.1 25.1 0 0 0-4.5 4 115 115 0 0 0-7.5 12q-9.986 9.965-15.5 23a144 144 0 0 0-15 18 1490 1490 0 0 0-4.5 8.5q.365 1.353 1 2.5 0 1-1 1l-1-2q-.626-1.083-2-1.5 1.255-1.517 1-3.5a682 682 0 0 1 7-32 19.2 19.2 0 0 0 1-6h4q-.264 5.538 5 6-.393 2.217 1 4 2.674-2.285 2-6h-3v-4q5.277.908 11 0-.428-2.682 1-5a84 84 0 0 0 7.5-9l1-5q2.637-1.454 1.5-3.5l4-2-1-1 6-2q1.32-2.034 1-4.5 1.763.329 3-1a125 125 0 0 0 8-15z" style="opacity:1"/><path fill="#8361af" d="M273.5 292.5q-.495 3.914-4.5 5-2.997-1.157-5 2-4.353-2.768-5.5-6.5-2.098-.892-4 .5l-3-1.5 1-1q-6.515-1.796-11 3a91.3 91.3 0 0 0 8 15.5 32.5 32.5 0 0 1 10 4q1.938 5.192 5 11a9.4 9.4 0 0 1 3 3 186 186 0 0 1 3-2q.255 1.983-1 3.5 1.374.417 2 1.5-6.959.822-13 4a13014 13014 0 0 1-15 6 54.4 54.4 0 0 0-11 4 133 133 0 0 0-1 23h-2q.25-13.01-.5-26a71 71 0 0 0-5.5-14v-8q7.593 7.202 8.5 17a3.94 3.94 0 0 0 2 1q3.786-3.854 7.5 0 1.817-1.16 0-2.5a22.8 22.8 0 0 1 5-4 48.3 48.3 0 0 0 12-2.5q3.984-5.927-1.5-12a10.1 10.1 0 0 0-1.5 6q-7.459-1.362-14.5 0-.539-4.567-2-1 .08-4.67-3.5-7.5 1.178-3.664-.5-7.5-1.903-.174-4-1 .327 3.13-.5 6-4.844-3.099-5-9a32.4 32.4 0 0 1 3-7q-.477-1.721-2-2.5 4.378-2.315 1-4.5 0-1 1-1a8.4 8.4 0 0 0 4-.5 3.65 3.65 0 0 1-1-1.5q2.5-1.5 4-4 3.38 1.13 5.5 4a72 72 0 0 0 4.5-6 4.46 4.46 0 0 1 1.5 2l1-4q4-2 6-6a11.3 11.3 0 0 0 3.5 1.5q-1.656 1.697 1 2.5.855 7.856 6 13.5-1.426 1.077-.5 2.5 2.72.14 5.5 1 2.294-.044 3.5-2 .696.891.5 2" style="opacity:1"/><path fill="#442354" d="M372.5 279.5q-1.6 3.569 3 3-.305 2.835 2 4.5l-13 1q-2.452 2.622-6 3.5a15.86 15.86 0 0 1-5.5 6q-1.088-2.487-3.5-1.5-3.805 2.838-5 6a19 19 0 0 1-8 1.5q-2.312-5.482-6 0-1.393-1.783-1-4 6.508-.183 1-1-.21-2.436 2-3.5-4.172-3.168-1-6.5a9.86 9.86 0 0 1 6-1q-.329 1.763 1 3a154 154 0 0 0 9.5-7q.39-3.177 3-5l1-10a45 45 0 0 0 5 5q1.492-.85 2.5-2 3.9-2.128 7.5-5l1 6q3.767 2.583 4.5 7" style="opacity:1"/><path fill="#563863" d="M458.5 269.5q1.083-.626 1.5-2 1.964 3.587 3 0 .625 1.884 2.5 2a372 372 0 0 0 10 29q-2.806-.538-4.5-3-2.826 4.017-1.5 8.5-1.573.739-3-.5a4.46 4.46 0 0 0-1.5 2q-4.205-1.97-6.5-6-2.484-2.283-3.5 1l-1-6-1 1q-4.582-3.5-7.5-8a335 335 0 0 1-1-11 59.7 59.7 0 0 1-14.5-7q-3.958 4.351-7-3-1.675 4.889-5.5 8a144 144 0 0 1-11-20 2.43 2.43 0 0 1 .5-2q.981 1.794 1.5 0-3.865-3.63-3-9a4.93 4.93 0 0 1 3 .5q2.496 4.704 8 3.5v4q5.1.346 6 5.5a165 165 0 0 0 15 6.5q1.656 1.697-1 2.5 3.144 7.765 10 2.5l6 5a7.25 7.25 0 0 0 2.5-2l1 2q2.559-1.212 2.5-4" style="opacity:1"/><path fill="#461f59" d="M388.5 251.5a916 916 0 0 1 4.5 28 197.5 197.5 0 0 1 8.5 32q-2.927-.41-4.5 2a416 416 0 0 1-7.5-19q-1.532-16.023-6-31v-8q1.401-1.602 1-4z" style="opacity:1"/><path fill="#8668a7" d="M278.5 287.5a19.2 19.2 0 0 1-1 6q-1.807-2.457-4-1a2.43 2.43 0 0 0-.5-2q-1.206 1.956-3.5 2a22.5 22.5 0 0 0-5.5-1q-.926-1.423.5-2.5-5.145-5.644-6-13.5-2.656-.803-1-2.5a11.3 11.3 0 0 1-3.5-1.5q-2 4-6 6l-1 4a4.46 4.46 0 0 0-1.5-2 72 72 0 0 1-4.5 6q-2.12-2.87-5.5-4-1.5 2.5-4 4a3.65 3.65 0 0 0 1 1.5 8.4 8.4 0 0 1-4 .5 27 27 0 0 1 3-7.5l-1-1a4.93 4.93 0 0 1 3-.5l1.5-9q8.635-12.336 15.5-25 3.135-.075 4 3a91 91 0 0 0-3 8.5q.642 7.386 6.5 2.5 2.743 1.45 5.5.5.29 2.468.5 5.5 2.649 3.572 3.5 8a19.9 19.9 0 0 1 3.5 4l1-2q-.399 5.101 4.5 5 1.352 4.45 2 8" style="opacity:1"/><path fill="#51226a" d="M383.5 258.5v5a16.3 16.3 0 0 0-5 2q-1.437-.679-2.5-2l-1 2a25.6 25.6 0 0 0-6-6q-2.407.901-4 3l-1-2q-1.088 2.487-3.5 1.5-1.132-3.2-4-5l2-2q-3.06-3.278-4-7.5h-3v-3a4.93 4.93 0 0 0-3 .5 47 47 0 0 1-3.5 5.5q-1.08 2.418.5 4.5-2.41 1.573-2 4.5-4.576 3.561-10 6.5 2.538 2.101 2 5.5-7.848 2.486-11 10.5a15.3 15.3 0 0 0-4.5 1.5 20.6 20.6 0 0 1-2 6q-4.423 2.315-2.5 6.5l-7 7a12.9 12.9 0 0 1-5 .5 49.4 49.4 0 0 0 1 11q-8.576 3.08-11 12a4.46 4.46 0 0 0 2 1.5q-1.647 1.155 0 2.5.656 2.361 3 3.5-1.374.417-2 1.5l-2 1a11.1 11.1 0 0 0-3-4.5q-12.078-2.357-3-11l-1-1q4.251-.068 7.5-2.5a17.3 17.3 0 0 1 3.5-7q-1.575-2.403 2-2.5-.522-3.082 2-6-1.426-1.077-.5-2.5 7.741-3.224 13-10 .996-4.524-1.5-8.5 1.81-5.636 6-9.5v-1a55 55 0 0 1 9-1.5q4.12-5.037 7-10.5 3.604.16 5.5-3a86 86 0 0 1 3-10 145 145 0 0 1 12.5-8q2.025 2.175 5 2a118.4 118.4 0 0 0 1 16h10v-4h3a4.93 4.93 0 0 0 .5 3 12.5 12.5 0 0 1 4 5 7.3 7.3 0 0 0 2-3q.417 1.374 1.5 2" style="opacity:1"/><path fill="#572e66" d="M445.5 287.5q.166.926 1 1.5-4 3 0 6-1.75.75-2.5 2.5-2.088 4.983-.5 10a19 19 0 0 1 5 3q-4.406.732-8.5-2-.726 2.54 1.5 4-5.079 3.1-7 9-1.356 1.063-1 3-1.763.329-3-1a61.6 61.6 0 0 0 8-14.5 6.2 6.2 0 0 0-2-3.5 18.7 18.7 0 0 0-5 3q1.491-2.751 0-5a20.1 20.1 0 0 0-1.5-6 26813 26813 0 0 0-12.5-23q3.825-3.111 5.5-8 3.042 7.351 7 3a59.7 59.7 0 0 0 14.5 7q.454 6.002 1 11" style="opacity:1"/><path fill="#3f1754" d="M383.5 279.5a91 91 0 0 1-1 19 25.5 25.5 0 0 1-4 4.5 55.6 55.6 0 0 0-9 1.5q-1.96 2.118-2.5 5l-1-2q-3 4-6 0-.75 1.75-2.5 2.5l2 1a32.5 32.5 0 0 1-8 .5q.175-2.976-2-5a37.6 37.6 0 0 0-9 8 3.65 3.65 0 0 1-1.5-1q-2.696 2.484-6.5 3-.266-2.171-3-4 .656-2.361 3-3.5l-1-1 4-2-1-1q1.374-.417 2-1.5a19 19 0 0 0 8-1.5q1.195-3.162 5-6 2.412-.987 3.5 1.5a15.86 15.86 0 0 0 5.5-6q3.548-.878 6-3.5l13-1q-2.305-1.665-2-4.5-4.6.569-3-3 1.884-.606 3.5-2a2188 2188 0 0 1 5 4q1.063-1.321 2.5-2" style="opacity:1"/><path fill="#805bb6" d="M273.5 292.5q2.193-1.457 4 1a682 682 0 0 0-7 32q-1.473.961-3 2a9.4 9.4 0 0 0-3-3q-3.062-5.808-5-11a32.5 32.5 0 0 0-10-4 91.3 91.3 0 0 1-8-15.5q4.485-4.796 11-3l-1 1 3 1.5q1.902-1.392 4-.5 1.147 3.732 5.5 6.5 2.003-3.157 5-2 4.005-1.086 4.5-5" style="opacity:1"/><path fill="#583166" d="M445.5 287.5q2.918 4.5 7.5 8l1-1 1 6q1.016-3.283 3.5-1 2.295 4.03 6.5 6a4.46 4.46 0 0 1 1.5-2q1.427 1.239 3 .5-1.326-4.483 1.5-8.5 1.694 2.462 4.5 3l9 26h-1q-1.411-3.937-3.5 0-.94-5.454-3.5 0a2336 2336 0 0 1-8-2 40387 40387 0 0 0-27-10q-2.226-1.46-1.5-4 4.094 2.732 8.5 2a19 19 0 0 0-5-3q-1.588-5.017.5-10 .75-1.75 2.5-2.5-4-3 0-6-.834-.574-1-1.5" style="opacity:1"/><path fill="#49255a" d="M359.5 271.5q-1.008 1.15-2.5 2a45 45 0 0 1-5-5l-1 10q-2.61 1.823-3 5a154 154 0 0 1-9.5 7q-1.329-1.237-1-3a9.86 9.86 0 0 0-6 1q-3.172 3.332 1 6.5-2.21 1.064-2 3.5 5.508.817-1 1-.393 2.217 1 4 3.688-5.482 6 0-.626 1.083-2 1.5l1 1-4 2 1 1q-2.344 1.139-3 3.5a9.86 9.86 0 0 0-6 1q-1.404 2.211-4 3-4.944-.73-9-3.5 1.25-4.068-1-8a20.5 20.5 0 0 1 4.5-2.5q.52-3.522 3.5-5.5-1.26-2.5 1.5-.5a8.4 8.4 0 0 0 .5-4q5.685.738 2-2.5a86.3 86.3 0 0 0 12.5-9.5 114.8 114.8 0 0 1 13-21v-8q1.665-2.305 4.5-2 .828 2.746 0 5 1.783 1.393 4 1a23.8 23.8 0 0 1-1 9q.519 1.794 1.5 0a32.4 32.4 0 0 0 1.5 6q.686 1.197 2 1" style="opacity:1"/><path fill="#a596a4" d="M431.5 303.5q1.491 2.249 0 5a14.56 14.56 0 0 1-5 4q1.647-1.345 0-2.5 1.595-1.782 4-1.5a20.7 20.7 0 0 1 1-5" style="opacity:.02"/><path fill="#fefffe" d="M424.5 313.5a27.5 27.5 0 0 1-11 5h-5q1.776-1.782 0-3.5a37 37 0 0 0 9.5-4.5q1.026 1.926-.5 3.5a45 45 0 0 0 7-.5" style="opacity:.004"/><path fill="#8b6db3" d="M227.5 288.5q3.378 2.185-1 4.5 1.523.779 2 2.5a32.4 32.4 0 0 0-3 7q.156 5.901 5 9 .827-2.87.5-6 2.097.826 4 1 1.678 3.836.5 7.5 3.58 2.83 3.5 7.5 1.461-3.567 2 1 7.041-1.362 14.5 0a10.1 10.1 0 0 1 1.5-6q5.484 6.073 1.5 12a48.3 48.3 0 0 1-12 2.5 22.8 22.8 0 0 0-5 4q1.817 1.34 0 2.5-3.714-3.854-7.5 0a3.94 3.94 0 0 1-2-1q-.907-9.798-8.5-17-3.7-6.944-5-15-1.783-1.393-4-1v11q-1.945-6.85 0-14a46.7 46.7 0 0 0 13-12" style="opacity:1"/><path fill="#43175e" d="M383.5 263.5q4.468 14.977 6 31-.926.166-1.5 1a18.5 18.5 0 0 0-.5 6q-1.451 1.96-4 2 1.008 7.776-5 12.5a4.93 4.93 0 0 1-3 .5q.678 5.455-4.5 7-2.305.921-4 0-3.045.82-6.5 3-5.169-2.518-8.5 2l-1-2a20.4 20.4 0 0 1-5.5 1.5q2 1 0 2-6.673-1.052-4 5.5h-5a12.9 12.9 0 0 1-.5 5q-4.395-2.488-9-1-1.026-1.926.5-3.5a25.2 25.2 0 0 0-10 0q-1.359 2.549-1 5.5a6.85 6.85 0 0 1-4-1 9.3 9.3 0 0 1-2.5 2 66 66 0 0 0-8.5-1.5q-2-3.286-5-5.5.626-1.083 2-1.5-2.344-1.139-3-3.5 6.068-.213 11.5 0 4.25-3.913 4-10a4.46 4.46 0 0 0 1.5 2q3.137-3.978 8-2.5a3.65 3.65 0 0 0-1 1.5q2.654 1.69 4-1.5-1.526-1.574-.5-3.5 3.657-1.602 6.5-4 2.734 1.829 3 4 3.804-.516 6.5-3 .621.686 1.5 1a37.6 37.6 0 0 1 9-8q2.175 2.024 2 5a32.5 32.5 0 0 0 8-.5l-2-1q1.75-.75 2.5-2.5 3 4 6 0l1 2q.54-2.882 2.5-5a55.6 55.6 0 0 1 9-1.5 25.5 25.5 0 0 0 4-4.5 91 91 0 0 0 1-19q-1.152-7.686-5-14a16.3 16.3 0 0 1 5-2" style="opacity:1"/><path fill="#7d7d7d" d="M402.5 316.5q2.463 2.371 6 2h2q-3.192 1.694-7 .5-1.129-1.006-1-2.5" style="opacity:.008"/><path fill="#461c4f" d="M441.5 312.5a40387 40387 0 0 1 27 10q-1.401 3.09-5 6.5.825 6.76-1.5 13.5a54 54 0 0 0-2.5-14q-2.975-.175-5 2-2.939-4.66-6.5-1a20.2 20.2 0 0 1-4-6q-8.174 10.242-9.5-2 1.921-5.9 7-9" style="opacity:1"/><path fill="#794ab4" d="M223.5 319.5v8q-.972 8.872 0 17.5a73.4 73.4 0 0 0-1.5 11.5q-1.346-5.871-1.5.5 2.244 4.248 3 11-1.384 3.062-1 6.5a908 908 0 0 1-8-60v-11q2.217-.393 4 1 1.3 8.056 5 15" style="opacity:1"/><path fill="#4a1670" d="M319.5 263.5a8.4 8.4 0 0 1-.5 4q-4.986 3.29.5 4-4.19 3.864-6 9.5 2.496 3.976 1.5 8.5-5.259 6.776-13 10-.926 1.423.5 2.5-2.522 2.918-2 6-3.575.097-2 2.5a17.3 17.3 0 0 0-3.5 7q-3.249 2.432-7.5 2.5l1 1q-9.078 8.643 3 11a11.1 11.1 0 0 1 3 4.5q-1.182 6.315 5 8 1.561 6.332 5 1.5 6.186-1.583 11 2.5a9.86 9.86 0 0 1 1 6q6.02-.03 2-4 2.55-3.79 5 .5-3.283 1.016-1 3.5a28.7 28.7 0 0 0 13 .5l-8-1q7.732-.114 14.5-3.5a65.4 65.4 0 0 1 15.5-11.5q1.712-1.112 0-2.5 4.49-2.925 9-6 1.329-1.237 1-3a8.4 8.4 0 0 0 4-.5 85.4 85.4 0 0 1 11.5-10.5l1 1a54 54 0 0 1 3.5-10q-1.122-2.874 0-6 1.314-.197 2 1-1.392 1.902-.5 4 4.407 4.14 5.5 10-7.137-10.557-7 3h3q.255 1.983-1 3.5-6.095.058-11.5 2.5.553 4.935 0 10-1.492.85-2.5 2-4.724.99-4.5 6-1.5-2-3 0-.044 3.692-.5 8a25 25 0 0 0-7 .5 47 47 0 0 1-5 6.5 51.7 51.7 0 0 0-12 8.5 37.8 37.8 0 0 0-12 2.5q-4.538-1.76-8 2-5.421-3.929-12-5-3.223-3.629-2-8-4.016-2.645 1-3.5a14.5 14.5 0 0 0-4.5-4.5 66.5 66.5 0 0 0-10 3l-2.5-1q1.412.017 2-1.5l-1.5-4.5q-.939 3.736-2.5 0-1.137 1.966-3 1.5l1-1a150 150 0 0 1-4-9l2-3q-6.209-2.109-4.5-8.5a30.3 30.3 0 0 0 3-10q5.457-.52 7.5-5.5-1.464-3.22.5-6.5 4.666-3.425 6.5-9a19.1 19.1 0 0 1 7-2.5 42.7 42.7 0 0 1 6-9q-2.84-3.785-7-2 1.129-1.006 1-2.5a115 115 0 0 1 7.5-12 25.1 25.1 0 0 1 4.5-4" style="opacity:1"/><path fill="#461466" d="M387.5 301.5q-1.122 3.126 0 6a54 54 0 0 0-3.5 10l-1-1a85.4 85.4 0 0 0-11.5 10.5 8.4 8.4 0 0 1-4 .5q.329 1.763-1 3a517 517 0 0 1-9 6q1.712 1.388 0 2.5a65.4 65.4 0 0 0-15.5 11.5q-6.768 3.386-14.5 3.5l8 1a28.7 28.7 0 0 1-13-.5q-2.283-2.484 1-3.5-2.45-4.29-5-.5 4.02 3.97-2 4a9.86 9.86 0 0 0-1-6q-4.814-4.083-11-2.5-3.439 4.832-5-1.5-6.182-1.685-5-8l2-1q3 2.214 5 5.5a66 66 0 0 1 8.5 1.5 9.3 9.3 0 0 0 2.5-2 6.85 6.85 0 0 0 4 1q-.359-2.951 1-5.5a25.2 25.2 0 0 1 10 0q-1.526 1.574-.5 3.5 4.605-1.488 9 1a12.9 12.9 0 0 0 .5-5h5q-2.673-6.552 4-5.5 2-1 0-2a20.4 20.4 0 0 0 5.5-1.5l1 2q3.331-4.518 8.5-2 3.455-2.18 6.5-3 1.695.921 4 0 5.178-1.545 4.5-7a4.93 4.93 0 0 0 3-.5q6.008-4.724 5-12.5 2.549-.04 4-2" style="opacity:1"/><path fill="#530b6c" d="M258.5 334.5q3.68 1.076 7 3.5-3.422 2.223 0 5-3.82.101-6.5 2.5-1.064-2.21-3.5-2v5q-2.867.111-3.5 3a32.4 32.4 0 0 1-1.5 6 3.65 3.65 0 0 0 1 1.5 14.8 14.8 0 0 0-3 4.5q-6.83-1.176-11.5-6-1.622-5.202 2-9 .743-2.96.5-6 2.82.406 4-2a13014 13014 0 0 0 15-6" style="opacity:1"/><path fill="#471959" d="M434.5 321.5q1.326 12.242 9.5 2a20.2 20.2 0 0 0 4 6q3.561-3.66 6.5 1 2.025-2.175 5-2a54 54 0 0 1 2.5 14q2.325-6.74 1.5-13.5 3.599-3.41 5-6.5 3.955.996 8 2 2.56-5.454 3.5 0 2.089-3.937 3.5 0a27.6 27.6 0 0 0-1.5 5q-1 2-2 0a37.6 37.6 0 0 1-3.5 13 34.3 34.3 0 0 1-8 1.5q-1.255 1.517-1 3.5-6.333 1.416-12 4 .237 6.294-6 6.5l1 1q-1.856.348-3 1.5a247 247 0 0 1-14.5-25l-1.5-9q-10.512.25-21-.5a108 108 0 0 0 9-2q-2.437-1.28-1-3-3.005-.502-5-2.5a27.5 27.5 0 0 0 11-5l2-1a14.56 14.56 0 0 0 5-4 18.7 18.7 0 0 1 5-3 6.2 6.2 0 0 1 2 3.5 61.6 61.6 0 0 1-8 14.5q1.237 1.329 3 1-.356-1.937 1-3" style="opacity:1"/><path fill="#8452a9" d="M273.5 331.5q8.109 10.697 14 23v2a219 219 0 0 1-15-24q1 0 1-1" style="opacity:1"/><path fill="#4c0d5f" d="M389.5 294.5a416 416 0 0 0 7.5 19q1.573-2.41 4.5-2a20.7 20.7 0 0 0 1 5q-.129 1.494 1 2.5 3.808 1.194 7-.5h3q1.995 1.998 5 2.5-1.437 1.72 1 3a108 108 0 0 1-9 2q10.488.75 21 .5l1.5 9a247 247 0 0 0 14.5 25 32.5 32.5 0 0 1 3 7q-3.497 6.892-8 1a34.3 34.3 0 0 1-7.5-3 9.3 9.3 0 0 0-2.5 2 48 48 0 0 0-1-7 68 68 0 0 0-7-5 1230 1230 0 0 0-9-15.5q.465-5.624 3-10.5a50.3 50.3 0 0 0-19 0q-1.564 3.524-4 6a14.83 14.83 0 0 1 3-7.5 26.5 26.5 0 0 1-4-11.5q-1.093-5.86-5.5-10-.892-2.098.5-4-.686-1.197-2-1a18.5 18.5 0 0 1 .5-6q.574-.834 1.5-1" style="opacity:1"/><path fill="#4d1e6d" d="M483.5 324.5h1v28a44 44 0 0 1-2-3l-2.5 3q-4.687-1.93-9.5 0 1.725 6.359 6.5 11 1.045 7.36-6 4a16.53 16.53 0 0 0-7.5-4v12q-2.436-.21-3.5 2-1.524-1.701-2 1-.574-.834-1.5-1a94 94 0 0 0-6-10 32.5 32.5 0 0 0-3-7q1.144-1.152 3-1.5l-1-1q6.237-.206 6-6.5 5.667-2.584 12-4-.255-1.983 1-3.5a34.3 34.3 0 0 0 8-1.5 37.6 37.6 0 0 0 3.5-13q1 2 2 0a27.6 27.6 0 0 1 1.5-5" style="opacity:1"/><path fill="#5e289a" d="M223.5 327.5a71 71 0 0 1 5.5 14q.75 12.99.5 26v16h-3a12.9 12.9 0 0 1-.5 5q-1.006-1.129-2.5-1a52.4 52.4 0 0 1-1-13q-.384-3.438 1-6.5-.756-6.752-3-11 .154-6.371 1.5-.5a73.4 73.4 0 0 1 1.5-11.5q-.972-8.628 0-17.5" style="opacity:.998"/><path fill="#52217d" d="M484.5 352.5a10392 10392 0 0 1-4 53 21.3 21.3 0 0 0-1.5-9 251 251 0 0 0-2.5 11 22.2 22.2 0 0 1-2.5-6q-4.594 4.542-5.5-2a133.5 133.5 0 0 0-9-16q-1.8-1.188-4 0l1-6q.926.166 1.5 1 .476-2.701 2-1 1.064-2.21 3.5-2v-12a16.53 16.53 0 0 1 7.5 4q7.045 3.36 6-4-4.775-4.641-6.5-11 4.813-1.93 9.5 0l2.5-3a44 44 0 0 0 2 3" style="opacity:1"/><path fill="#40084e" d="M423.5 360.5q-2.117 9.713 8 12v4q-4.99.874-9-3.5-2.719.07-5-.5-3.857 4.998 0 10-.686 1.197-2 1-6.058 1.26-9-4-2.244 5.752-3 0-5.74.09-2-3.5a36 36 0 0 0-2-4.5q.263-4.244-4-5 4.002-2.993 5-8-1.317-4.382 0-8 5.663.955 11-2 2.545.599 5 1.5a310 310 0 0 0 7 10.5" style="opacity:1"/><path fill="#50197d" d="M307.5 279.5q.129 1.494-1 2.5 4.16-1.785 7 2a42.7 42.7 0 0 0-6 9 19.1 19.1 0 0 0-7 2.5q-1.834 5.575-6.5 9-1.964 3.28-.5 6.5-2.043 4.98-7.5 5.5a30.3 30.3 0 0 1-3 10q-1.709 6.391 4.5 8.5l-2 3a150 150 0 0 0 4 9l-1 1q1.863.466 3-1.5 1.561 3.736 2.5 0l1.5 4.5q-.588 1.517-2 1.5l2.5 1a66.5 66.5 0 0 1 10-3 14.5 14.5 0 0 1 4.5 4.5q-5.016.855-1 3.5-1.223 4.371 2 8 6.579 1.071 12 5 3.462-3.76 8-2a37.8 37.8 0 0 1 12-2.5 51.7 51.7 0 0 1 12-8.5 47 47 0 0 0 5-6.5 25 25 0 0 1 7-.5q.456-4.308.5-8 1.5-2 3 0-.224-5.01 4.5-6-.129 1.494 1 2.5a1871 1871 0 0 1-7 11q2.053 3.359-1.5 5.5a3.65 3.65 0 0 0-1.5-1q-3.015 1.503-6 3a4.46 4.46 0 0 0 2 1.5 39.8 39.8 0 0 0-8 7q1.254 1.865-1 3.5a1038 1038 0 0 0-16 2q-4.597 4.462-10.5 2a245 245 0 0 1-8.5 2q-4.362-4.883-11-5a4.93 4.93 0 0 0-.5-3q-3.885-1.424-6-5 .655-4.01-3.5-6.5-2.418-1.08-4.5.5-1.43-3.138-4-1-.417-1.374-1.5-2-5.891-12.303-14-23a11 11 0 0 1-1-2.5q2.225-4.235 4.5-8.5a144 144 0 0 1 15-18q5.514-13.035 15.5-23" style="opacity:1"/><path fill="#460855" d="M424.5 355.5q.857 2.79 0 5h-1a310 310 0 0 1-7-10.5 43 43 0 0 0-5-1.5q-5.337 2.955-11 2-1.317 3.618 0 8-.998 5.007-5 8 4.263.756 4 5-2.92.975-5 3.5-1.926 1.026-3.5-.5-5.933 7.806-6.5-1-2.518-.322-3 2h-2q5.093-8.643 5.5-19l3-2a69.5 69.5 0 0 0 5.5-15q.733-2.243 2-4 2.436-2.476 4-6a50.3 50.3 0 0 1 19 0q-2.535 4.876-3 10.5a1230 1230 0 0 1 9 15.5" style="opacity:1"/><path fill="#3d0c58" d="m271.5 330.5 1 2a219 219 0 0 0 15 24v7q-3.921-.334-5 3.5l-5 1a13.9 13.9 0 0 1-3 4 102 102 0 0 0-16 7q-3.072 1.839-1 4.5a103.3 103.3 0 0 1-18.5 11q-3.688-1.724-7.5 0v-27a133 133 0 0 1 1-23 54.4 54.4 0 0 1 11-4q-1.18 2.406-4 2a18.5 18.5 0 0 1-.5 6q-3.622 3.798-2 9 4.67 4.824 11.5 6a14.8 14.8 0 0 1 3-4.5 3.65 3.65 0 0 1-1-1.5 32.4 32.4 0 0 0 1.5-6q.633-2.889 3.5-3v-5q2.436-.21 3.5 2 2.68-2.399 6.5-2.5-3.422-2.777 0-5-3.32-2.424-7-3.5 6.041-3.178 13-4" style="opacity:1"/><path fill="#3a0847" d="M255.5 348.5q2.957-.546 6-1 3.993 4.496 10 4-.255-1.983 1-3.5 6.52-1.615 9.5 4.5 2.157 4.981.5 10-7.882 8.136-18.5 12-5.889-1.13-5.5-7a12.9 12.9 0 0 1-5-.5q2.543-8.614 2-18.5" style="opacity:1"/><path fill="#511584" d="M394.5 316.5a26.5 26.5 0 0 0 4 11.5 14.83 14.83 0 0 0-3 7.5q-1.267 1.757-2 4a138 138 0 0 0-7.5 14q-1.062 1.321-2.5 2a376 376 0 0 1 11.5-24q1.751-5.089-2.5-8-3.857 1.842-4 6-5.685-.82-6 5a34.3 34.3 0 0 1 1 11h-3l-1 6q-1.983-.255-3.5 1a313 313 0 0 1-8.5 18q-3.579 1.31-6 4.5a20.5 20.5 0 0 0-8 3q-2.483 2.167-2 5.5a50.3 50.3 0 0 0-14.5 5q-8.805-5.762-19.5-6a136 136 0 0 1-10-11q6.638.117 11 5a245 245 0 0 0 8.5-2q5.903 2.462 10.5-2a1038 1038 0 0 1 16-2q2.254-1.635 1-3.5a39.8 39.8 0 0 1 8-7 4.46 4.46 0 0 1-2-1.5q2.985-1.497 6-3a3.65 3.65 0 0 1 1.5 1q3.553-2.141 1.5-5.5 3.546-5.53 7-11-1.129-1.006-1-2.5 1.008-1.15 2.5-2 .553-5.065 0-10 5.405-2.442 11.5-2.5 1.255-1.517 1-3.5h-3q-.137-13.557 7-3" style="opacity:1"/><path fill="#511287" d="M287.5 354.5q1.083.626 1.5 2 2.57-2.138 4 1 2.082-1.58 4.5-.5 4.155 2.49 3.5 6.5 2.115 3.576 6 5 .724 1.422.5 3a136 136 0 0 0 10 11q10.695.238 19.5 6a50.3 50.3 0 0 1 14.5-5q-.483-3.333 2-5.5a20.5 20.5 0 0 1 8-3q2.421-3.19 6-4.5.042 3.124-2 5.5-4.996 1.05-9 3.5.274 3.654-2 6.5a25.1 25.1 0 0 1-10 3q-4.293 3.618-10 2a194 194 0 0 0-12.5-4.5 20 20 0 0 0-4.5 3 61.4 61.4 0 0 0-12.5-10 103 103 0 0 1-2.5-8q-2.071.75-2 3 2.03 4.517 4 9a41 41 0 0 0 3.5 8q.746 3.97.5 8-10.63-1.29-16 6.5l-10 5q-3.404 1.137-6.5-.5-1.43 3.138-4 1-3.75 2.75-6.5 6.5a101 101 0 0 0-17 8.5q-1.428 2.318-1 5h-8v4h-3a26.15 26.15 0 0 1-1.5-12 4.46 4.46 0 0 1 1.5-2q5.085 4.27 7.5-2l1-12q5.227-3.677-.5-6.5 1.13-2.23 2.5-.5a8.4 8.4 0 0 0 .5-4q-2.519.322-3-2a9.2 9.2 0 0 0 4.5-2l3.5 3.5q-5.23 7.874-2 16.5a4.93 4.93 0 0 1-1 2.5q2.96.743 6 .5.485-7.112 5-1 2.881 1.712 6 .5a14.5 14.5 0 0 1 4-5q8.679-4.468 16-10.5a119 119 0 0 0 10.5-8q2.963-.018 6.5 1a50.5 50.5 0 0 0-.5-10 430 430 0 0 0-15.5-24v-4" style="opacity:1"/><path fill="#420c61" d="M393.5 339.5a69.5 69.5 0 0 1-5.5 15l-3 2q-.407 10.357-5.5 19-4.923 6.735-7 15-2.473.972-4 3a3.65 3.65 0 0 0 1 1.5 42.4 42.4 0 0 0-1.5 8.5q-2.827 1.22-2 4 2-4 4 0a26.7 26.7 0 0 1 7-1q9.984 3.606 21 5 5.782-3.666 12.5-6 1.998-4.838 6.5-3 9.944-2.388 6.5-12l2-4q-2-1.68-1.5-4 4.374-3.743 10.5-3.5a274 274 0 0 0 4-4 3.94 3.94 0 0 0-1-2q-4.983-.908-8.5-4.5a16.6 16.6 0 0 1 .5-7 20.7 20.7 0 0 1-5-1q.857-2.21 0-5a68 68 0 0 1 7 5 48 48 0 0 1 1 7 9.3 9.3 0 0 1 2.5-2 34.3 34.3 0 0 0 7.5 3q4.503 5.892 8-1a94 94 0 0 1 6 10l-1 6a15.4 15.4 0 0 1-4.5-2l-1.5 1q2.38 2.51 2 6-5.635.297-9-4a552 552 0 0 0-9.5-2q-2.789 1.718-2.5 5 .47 6.115 3 11.5-3.838 14.839-19 17l-4 3q-6.144.332-10 4.5a216 216 0 0 1-32-.5 20.5 20.5 0 0 0-4.5-2.5q-1.67 2.744-4.5 2.5-1.113-7.062 2.5-13.5.747-4.473.5-9v-1a535 535 0 0 1 14.5-27 176 176 0 0 0 6.5-17q1.438-.679 2.5-2a138 138 0 0 1 7.5-14" style="opacity:1"/><path fill="#490961" d="M287.5 363.5a18.5 18.5 0 0 1 3.5 2q2.421 9.489 6.5 18-1.983-.255-3.5 1-4.452-8.711-8.5-.5-4.085.194-8 2.5-3.103-.487-1-2.5-3.198-1.377-2-4-6.151-4.401-13-1-2.462 1.694-3 4.5h-1q-2.072-2.661 1-4.5a102 102 0 0 1 16-7 13.9 13.9 0 0 0 3-4l5-1q1.079-3.834 5-3.5" style="opacity:1"/><path fill="#3c0a55" d="M423.5 360.5h1a20.7 20.7 0 0 0 5 1 16.6 16.6 0 0 0-.5 7q3.517 3.592 8.5 4.5a3.94 3.94 0 0 1 1 2 274 274 0 0 1-4 4q-6.126-.243-10.5 3.5-.5 2.32 1.5 4l-2 4q3.444 9.612-6.5 12-4.502-1.838-6.5 3-6.718 2.334-12.5 6-11.016-1.394-21-5-3.636.045-7 1-2-4-4 0-.827-2.78 2-4a42.4 42.4 0 0 1 1.5-8.5 3.65 3.65 0 0 1-1-1.5q1.527-2.028 4-3 2.077-8.265 7-15h2q-2.496 5.05-2.5 11l-1-2q-.54 2.882-2.5 5a10.94 10.94 0 0 0 3 4.5q4.618 1.245 8 2.5 1.393 2.733-2 4 3.736 1.561 0 2.5l2 1q5.05.787 9.5-1.5 3.514.273 5.5 3a87 87 0 0 1 7-2.5q-1.936-3.135 2-4-1.564-7.428 4.5-12.5a4.93 4.93 0 0 0 .5-3q1.314.197 2-1-3.857-5.002 0-10 2.281.57 5 .5 4.01 4.374 9 3.5v-4q-10.117-2.287-8-12" style="opacity:1"/><path fill="#380a4d" d="M399.5 371.5a36 36 0 0 1 2 4.5q-3.74 3.59 2 3.5.756 5.752 3 0 2.942 5.26 9 4a4.93 4.93 0 0 1-.5 3q-6.064 5.072-4.5 12.5-3.936.865-2 4a87 87 0 0 0-7 2.5q-1.986-2.727-5.5-3-4.45 2.287-9.5 1.5l-2-1q3.736-.939 0-2.5 3.393-1.267 2-4-3.382-1.255-8-2.5a10.94 10.94 0 0 1-3-4.5q1.96-2.118 2.5-5l1 2q.004-5.95 2.5-11 .482-2.322 3-2 .567 8.806 6.5 1 1.574 1.526 3.5.5 2.08-2.525 5-3.5" style="opacity:1"/><path fill="#561691" d="M383.5 355.5a176 176 0 0 1-6.5 17 535 535 0 0 0-14.5 27q-.258-6.981 4.5-12 .745-3.465.5-7-1.763-.329-3 1-.05 2.233-1.5 4a4.46 4.46 0 0 0-1.5-2 12.4 12.4 0 0 0-5 4.5q-4.966-.343-5.5 4.5-1.574-1.526-3.5-.5-1.996 5.736-8 4.5a226 226 0 0 0-26-7 7.3 7.3 0 0 0-3 2q-2.506-4.488-6-8a1211 1211 0 0 0-4-9q-.071-2.25 2-3a103 103 0 0 0 2.5 8 61.4 61.4 0 0 1 12.5 10 20 20 0 0 1 4.5-3 194 194 0 0 1 12.5 4.5q5.707 1.618 10-2a25.1 25.1 0 0 0 10-3q2.274-2.846 2-6.5 4.004-2.45 9-3.5 2.042-2.376 2-5.5a313 313 0 0 0 8.5-18q1.517-1.255 3.5-1l1-6h3a34.3 34.3 0 0 0-1-11q.315-5.82 6-5 .143-4.158 4-6 4.251 2.911 2.5 8a376 376 0 0 0-11.5 24" style="opacity:1"/><path fill="#47086d" d="M287.5 358.5a430 430 0 0 1 15.5 24q.747 4.975.5 10-3.537-1.018-6.5-1a119 119 0 0 1-10.5 8q-7.785.639-14 5.5-3.086.457-6 0-1.972 2.092 1 3a36 36 0 0 0-4.5 3.5 15.3 15.3 0 0 0-4.5-1.5q-5.377-2.404-1-6.5 4.966 1.28 10-.5a7.25 7.25 0 0 0 2-2.5l-7-2q1.27-2.018 3.5-3a8.4 8.4 0 0 0 .5-4h5q2.421-20.067-13-8 .538-2.806 3-4.5 6.849-3.401 13 1-1.198 2.623 2 4-2.103 2.013 1 2.5 3.915-2.306 8-2.5 4.048-8.211 8.5.5 1.517-1.255 3.5-1-4.079-8.511-6.5-18a18.5 18.5 0 0 0-3.5-2z" style="opacity:1"/><path fill="#480f70" d="M455.5 383.5q2.2-1.188 4 0a133.5 133.5 0 0 1 9 16q-3.633-.877-5-4.5-6.478.528-13-1.5-4.296-3.44-10-4a116 116 0 0 1 2 26h-7a73 73 0 0 1-8 .5 17.7 17.7 0 0 1-5.5 4.5q-1.418-.608-2-2-6.531.354-11.5 4.5a32.5 32.5 0 0 1-8 .5q3.856-4.168 10-4.5l4-3q15.162-2.161 19-17-2.53-5.385-3-11.5-.289-3.282 2.5-5 4.694.944 9.5 2 3.365 4.297 9 4 .38-3.49-2-6l1.5-1a15.4 15.4 0 0 0 4.5 2" style="opacity:1"/><path fill="#4b0b75" d="M286.5 399.5q-7.321 6.032-16 10.5a14.5 14.5 0 0 0-4 5q-3.119 1.212-6-.5-4.515-6.112-5 1a18.5 18.5 0 0 1-6-.5 4.93 4.93 0 0 0 1-2.5q-3.23-8.626 2-16.5l-3.5-3.5a9.2 9.2 0 0 1-4.5 2q-5.2-.081-8 4.5a12.9 12.9 0 0 1-5 .5v-5q3.812-1.724 7.5 0a103.3 103.3 0 0 0 18.5-11h1q15.421-12.067 13 8h-5a8.4 8.4 0 0 1-.5 4q-2.23.982-3.5 3l7 2a7.25 7.25 0 0 1-2 2.5q-5.034 1.78-10 .5-4.377 4.096 1 6.5 2.401.41 4.5 1.5a36 36 0 0 1 4.5-3.5q-2.972-.908-1-3 2.914.457 6 0 6.215-4.861 14-5.5" style="opacity:1"/><path fill="#5c18a7" d="M354.5 410.5q-.279 5.779-6 5-.94 8.373-7.5 14-2.349.841-4-2-3.877 2.077-6-2a345 345 0 0 0-13-21 2.43 2.43 0 0 0-.5 2q-3.006-5.503-6-11 2.436.21 3.5-2 4.077 5.062 10 4 4.865 2.644 10.5 2-.33 4.35 2 8 6.644-2.909 11-8.5a17.7 17.7 0 0 1 6 .5 41.5 41.5 0 0 1-1-8h5q1.269-7.393 4-.5-3.257 5.285-3.5 11.5a30.8 30.8 0 0 1-4.5 8" style="opacity:1"/><path fill="#530f91" d="M362.5 399.5v1a7208 7208 0 0 1-7 12q.258-1.488-1-2a30.8 30.8 0 0 0 4.5-8q.243-6.215 3.5-11.5-2.731-6.893-4 .5h-5a41.5 41.5 0 0 0 1 8 17.7 17.7 0 0 0-6-.5q-4.356 5.591-11 8.5-2.33-3.65-2-8-5.635.644-10.5-2-5.923 1.062-10-4-1.064 2.21-3.5 2-1.15 1.008-2 2.5 2.881 1.861 1 4.5a4.46 4.46 0 0 1-1.5-2 25 25 0 0 0-.5 7h3q-.32 2.466 1 4.5-9.904 2.867 0 2-6.107 3.234-12-.5a26 26 0 0 1-5 3q1.712 1.388 0 2.5a52.8 52.8 0 0 1-19 1q1.72-3.127-2-4.5a261 261 0 0 0-19 11 14.56 14.56 0 0 0-4 5 281 281 0 0 0-16.5 12 16.6 16.6 0 0 0 .5 7q-1 0-1-1-1.008-1.15-2.5-2a1546 1546 0 0 1-.5-48 12.9 12.9 0 0 0 5-.5q2.8-4.581 8-4.5.481 2.322 3 2a8.4 8.4 0 0 1-.5 4q-1.37-1.73-2.5.5 5.727 2.823.5 6.5l-1 12q-2.415 6.27-7.5 2a4.46 4.46 0 0 0-1.5 2 26.15 26.15 0 0 0 1.5 12h3v-4h8q-.428-2.682 1-5a101 101 0 0 1 17-8.5q2.75-3.75 6.5-6.5 2.57 2.138 4-1 3.096 1.637 6.5.5l10-5q5.37-7.79 16-6.5a32.5 32.5 0 0 0-.5-8 41 41 0 0 1-3.5-8q3.494 3.512 6 8a7.3 7.3 0 0 1 3-2 226 226 0 0 1 26 7q6.004 1.236 8-4.5 1.926-1.026 3.5.5.534-4.843 5.5-4.5a12.4 12.4 0 0 1 5-4.5 4.46 4.46 0 0 1 1.5 2q1.45-1.767 1.5-4 1.237-1.329 3-1a25 25 0 0 1-.5 7q-4.758 5.019-4.5 12" style="opacity:1"/><path fill="#6832a9" d="M229.5 367.5h2v32q-.124 23.844.5 48 1.492.85 2.5 2-2.292.026-1.5 2a1217 1217 0 0 0 27.5 26.5 27.6 27.6 0 0 0-5 1.5 210.3 210.3 0 0 1-27.5-27 3606 3606 0 0 1-4.5-65q1.494-.129 2.5 1a12.9 12.9 0 0 0 .5-5h3z" style="opacity:.184"/><path fill="#5e1daa" d="M463.5 404.5a99 99 0 0 1 10 6.5q1.32 2.034 1 4.5a23.7 23.7 0 0 0-6 10l-25 24a2.43 2.43 0 0 0-.5-2q-2.039 1.298-3.5 3-.166-.926-1-1.5 5.35-7.779 13.5-12.5a16.6 16.6 0 0 0-.5-7q-5.115-.174-4 5-5.298-.285-10 2a2503 2503 0 0 1-18 11q-1.78 1.73-3 0 3.09-4.161 8-6.5a22.5 22.5 0 0 1 7-2 95 95 0 0 1 7.5-7.5 8.4 8.4 0 0 0 .5-4q5.463-.87 11-1.5a20.5 20.5 0 0 1 2.5-3.5 47.1 47.1 0 0 1 4-16 31.7 31.7 0 0 1 6.5-2" style="opacity:1"/><path fill="#490b73" d="M362.5 400.5a41 41 0 0 1-.5 9q-3.613 6.438-2.5 13.5 2.83.244 4.5-2.5a20.5 20.5 0 0 1 4.5 2.5 216 216 0 0 0 32 .5 32.5 32.5 0 0 0 8-.5q4.969-4.146 11.5-4.5.582 1.392 2 2a17.7 17.7 0 0 0 5.5-4.5 73 73 0 0 0 8-.5q-.456.975-1 2-8.8 2.177-16 7.5-8.514 1.421-16 5.5-14.426.795-28.5 1-7.328.33-14-2-3.405 2.04-7.5 2a77 77 0 0 1-1-10q.849-5.06 4-9a7208 7208 0 0 0 7-12" style="opacity:1"/><path fill="#570b9f" d="M311.5 395.5q2.994 5.497 6 11a1791 1791 0 0 0 17.5 29q1 4.5 0 9a71.7 71.7 0 0 1-9 17q-.014 4.304-.5 8-1.549-2.117-2-5a112 112 0 0 0 8.5-17 66 66 0 0 1 1.5-10q-3.177-7.899-10-7-1.329-1.237-1-3a8.4 8.4 0 0 1-4-.5q1.73-1.37-.5-2.5-3.543 3.403-8 1-15.987 7.185-33.5 7.5 2.656.803 1 2.5a10.3 10.3 0 0 0-3-1q-3.31 3.021-8 3-3.165-4.835-3-11-3.842-1.306-8 0a261 261 0 0 1 19-11q3.72 1.373 2 4.5a52.8 52.8 0 0 0 19-1q1.712-1.112 0-2.5a26 26 0 0 0 5-3q5.893 3.734 12 .5-9.904.867 0-2-1.32-2.034-1-4.5h-3q-.245-3.535.5-7a4.46 4.46 0 0 0 1.5 2q1.881-2.639-1-4.5.85-1.492 2-2.5" style="opacity:1"/><path fill="#4f0e81" d="M468.5 399.5q.906 6.542 5.5 2a22.2 22.2 0 0 0 2.5 6 251 251 0 0 1 2.5-11 21.3 21.3 0 0 1 1.5 9q.442 3.352-1 6-.09-.814-1-1-1.483 3.13-4 5 .32-2.466-1-4.5a99 99 0 0 0-10-6.5q-4.87-4.907-11-8.5a26.7 26.7 0 0 1-6.5-1.5 4.46 4.46 0 0 0-1.5 2q3.854 6.975 8 13.5-2.042 2.376-2 5.5-6.635 3.614-12 9.5a30.3 30.3 0 0 1-10 3q-1.255 1.517-1 3.5-11.511-.25-23 .5a275 275 0 0 0-17.5 7.5q-2.86-2.144-6.5-2a75 75 0 0 1-13.5 4q-8.362-4.188-16 1-2.5-2-5 0-.75-1.75-2.5-2.5 2.274-2.846 2-6.5a50.6 50.6 0 0 1 6-12q.174 5.04 1 10 4.095.04 7.5-2 6.672 2.33 14 2 14.074-.205 28.5-1 7.486-4.079 16-5.5 7.2-5.323 16-7.5.544-1.025 1-2h7a116 116 0 0 0-2-26q5.704.56 10 4 6.522 2.028 13 1.5 1.367 3.623 5 4.5" style="opacity:1"/><path fill="#6e2cb6" d="M354.5 410.5q1.258.512 1 2-3.151 3.94-4 9a50.6 50.6 0 0 0-6 12 143 143 0 0 0-9 19 157 157 0 0 0-7 15q-1.258.512-1 2-4.579 4.882-1 10 1.356 1.063 1 3l-3-2q-1.96-1.451-2-4h-4a94 94 0 0 0-22-6 27.2 27.2 0 0 0-5-3q8.641-5.467 13 3.5 7.278 1.222 14-.5 2.927-.41 4.5 2 1.558-1.116 1.5-3 .486-3.696.5-8a71.7 71.7 0 0 0 9-17q1-4.5 0-9a1791 1791 0 0 1-17.5-29 2.43 2.43 0 0 1 .5-2 345 345 0 0 1 13 21q2.123 4.077 6 2 1.651 2.841 4 2 6.56-5.627 7.5-14 5.721.779 6-5" style="opacity:1"/><path fill="#5a0eaf" d="M325.5 469.5q.058 1.884-1.5 3-1.573-2.41-4.5-2-.247-5.025.5-10 3.605-1.921 5.5-5.5a11.4 11.4 0 0 0-2-2.5q-1.388 1.712-2.5 0-1.302-4.477-1-9 2.918-1.788 6 0 3.807-2.045 1-5-3.47 2.305-7.5 1.5-6.179-4.84-14-5.5.305 2.835-2 4.5-3.678.435-7 2 1.255 1.517 1 3.5-5.447-.702-10 2-1.948-.885-2.5-3l-1.5 1.5q-6.636.27-13 .5-7.96-1.806-14-7a10.3 10.3 0 0 0-1.5 4 9.5 9.5 0 0 0-1.5-2.5q2.237-3.932 2-8.5h-4a14.56 14.56 0 0 1 4-5q4.158-1.306 8 0-.165 6.165 3 11 4.69.021 8-3 1.581.27 3 1 1.656-1.697-1-2.5 17.513-.315 33.5-7.5 4.457 2.403 8-1 2.23 1.13.5 2.5a8.4 8.4 0 0 0 4 .5q-.329 1.763 1 3 6.823-.899 10 7a66 66 0 0 0-1.5 10 112 112 0 0 1-8.5 17q.451 2.883 2 5" style="opacity:1"/><path fill="#5b0b9a" d="M463.5 404.5a31.7 31.7 0 0 0-6.5 2 47.1 47.1 0 0 0-4 16 20.5 20.5 0 0 0-2.5 3.5q-5.537.63-11 1.5a8.4 8.4 0 0 1-.5 4 95 95 0 0 0-7.5 7.5q-3.678.435-7 2-4.91 2.339-8 6.5-8.81-2.304-11 6a537 537 0 0 0-15.5 4q-3.852-2.051-7 1-7.214-2.903-14 0-5.24-2.181-10 1a4.93 4.93 0 0 0-2.5-1 74.3 74.3 0 0 1-19 2.5q-1.212 2.559-4 2.5.024 4.999-4 4a157 157 0 0 1 7-15 8.4 8.4 0 0 0 .5 4l9-2q4.301 1.989 6.5-2.5a24.9 24.9 0 0 0 8.5-2.5q1.697 1.656 2.5-1a65 65 0 0 1 16-1q-.362 5.248 2.5 1 1.37 1.73 2.5-.5 7.77.373 14-4a135 135 0 0 0 20.5-6.5q3.961-3.588 8.5-6-.255-1.983 1-3.5a30.3 30.3 0 0 0 10-3q5.365-5.886 12-9.5-.042-3.124 2-5.5a256 256 0 0 1-8-13.5 4.46 4.46 0 0 1 1.5-2 26.7 26.7 0 0 0 6.5 1.5q6.13 3.593 11 8.5" style="opacity:1"/><path fill="#631bbf" d="M251.5 431.5h4q.237 4.568-2 8.5a9.5 9.5 0 0 1 1.5 2.5 10.3 10.3 0 0 1 1.5-4q6.04 5.194 14 7 6.364-.23 13-.5l1.5-1.5q.552 2.115 2.5 3 4.553-2.702 10-2 .255-1.983-1-3.5a22.5 22.5 0 0 1 7-2q2.305-1.665 2-4.5 7.821.66 14 5.5 4.03.805 7.5-1.5 2.807 2.955-1 5-3.082-1.788-6 0-.302 4.523 1 9 1.112 1.712 2.5 0a11.4 11.4 0 0 1 2 2.5q-1.895 3.579-5.5 5.5a50.5 50.5 0 0 0-.5 10q-6.722 1.722-14 .5-4.359-8.967-13-3.5a148.4 148.4 0 0 0-24-5 250 250 0 0 0-33-12 16.6 16.6 0 0 1-.5-7 281 281 0 0 1 16.5-12" style="opacity:1"/><path fill="#5e2296" d="M479.5 411.5a28.8 28.8 0 0 1-2.5 11 1947 1947 0 0 0-26 53q-1.915 3.37-4.5 6-.425-1.184-1.5-2a67.6 67.6 0 0 0-8.5 5q.116-1.875 2-2.5-1.127-9.41 8.5-11.5a126.2 126.2 0 0 0 11-26q1.885-3.369 5.5-4a90 90 0 0 1 6-14.5q-.343-.598-1-.5a23.7 23.7 0 0 1 6-10q2.517-1.87 4-5 .91.186 1 1" style="opacity:1"/><path fill="#55098c" d="M427.5 431.5q-4.539 2.412-8.5 6a135 135 0 0 1-20.5 6.5q-6.23 4.373-14 4-1.13 2.23-2.5.5-2.862 4.248-2.5-1a65 65 0 0 0-16 1q-.803 2.656-2.5 1a24.9 24.9 0 0 1-8.5 2.5q-2.199 4.489-6.5 2.5l-9 2a8.4 8.4 0 0 1-.5-4 143 143 0 0 1 9-19q.274 3.654-2 6.5 1.75.75 2.5 2.5 2.5-2 5 0 7.638-5.188 16-1a75 75 0 0 0 13.5-4q3.64-.144 6.5 2a275 275 0 0 1 17.5-7.5q11.489-.75 23-.5" style="opacity:1"/><path fill="#600aa5" d="M437.5 436.5a36.6 36.6 0 0 1-4 6.5 14.3 14.3 0 0 0-6.5 2.5q-.739 1.573.5 3-10.8 3.693-18 12.5-5.043 2.014-9 5.5-.166-.926-1-1.5a271 271 0 0 0-6.5-.5q-1.782 1.595-1.5 4h-3q.588-3.969 0-7.5a32.7 32.7 0 0 1-11.5-.5q-1.63 3.648-1.5-1-8.022-.688-15.5 2a11.1 11.1 0 0 1-3.5-2q-1.306 5.554 2 10.5l-1.5 1.5q-1.584-7.07-5-1a4.93 4.93 0 0 1-.5-3q-4.449-.585-8 2l-4-3a27.8 27.8 0 0 1-9 5q-1.82-.37-2-2-.258-1.488 1-2 4.024.999 4-4 2.788.059 4-2.5a74.3 74.3 0 0 0 19-2.5 4.93 4.93 0 0 1 2.5 1q4.76-3.181 10-1 6.786-2.903 14 0 3.148-3.051 7-1a537 537 0 0 1 15.5-4q2.19-8.304 11-6 1.22 1.73 3 0a2503 2503 0 0 0 18-11" style="opacity:1"/><path fill="#5d189d" d="M468.5 425.5q.657-.098 1 .5a90 90 0 0 0-6 14.5q-3.615.631-5.5 4a126.2 126.2 0 0 1-11 26q-9.627 2.09-8.5 11.5-1.884.625-2 2.5-5.837-.36-12 1-1.214-1.453-3-2.5a51 51 0 0 1 5-4.5q-1.662-5.325-.5-11a585 585 0 0 1 17.5-18z" style="opacity:1"/><path fill="#6106aa" d="M400.5 466.5a3845 3845 0 0 1-11 4q-4.861-2.57-6 3a11 11 0 0 1-5.5 2q-5.994-.736-12-3-3.032 4.18-4.5-1l-1 1.5q2.577 5.533 1.5 11.5a7.25 7.25 0 0 1-2.5 2q-3.91.8-7.5-2l-1 3a64 64 0 0 0-8-5q-3.122 1.25-6.5 0-.704-4.212-4-7-1.81 3.061-5 4-3.579-5.118 1-10 .18 1.63 2 2a27.8 27.8 0 0 0 9-5l4 3q3.551-2.585 8-2a4.93 4.93 0 0 0 .5 3q3.416-6.07 5 1l1.5-1.5q-3.306-4.946-2-10.5a11.1 11.1 0 0 0 3.5 2q7.478-2.688 15.5-2-.13 4.648 1.5 1a32.7 32.7 0 0 0 11.5.5q.588 3.531 0 7.5h3q-.282-2.405 1.5-4 2.961.188 6.5.5.834.574 1 1.5" style="opacity:1"/><path fill="#6b26e1" d="M287.5 468.5q4.351 1.554 7.5 5-.214 2.047-1.5 4-6.393 1.04-1 2.5a3.94 3.94 0 0 0-1 2 18.2 18.2 0 0 1 2 3.5 39.2 39.2 0 0 0-4 10 12.4 12.4 0 0 1-2.5-4l-1 1a168 168 0 0 1-6.5-2 43 43 0 0 0-3-5.5q1.573-6.762.5-13.5l2 2q1.505-6.686 8.5-5" style="opacity:1"/><path fill="#7630df" d="M287.5 468.5q-6.995-1.686-8.5 5l-2-2q1.073 6.738-.5 13.5a43 43 0 0 1 3 5.5q3.28 1.081 6.5 2l1-1a12.4 12.4 0 0 0 2.5 4 39.2 39.2 0 0 1 4-10 18.2 18.2 0 0 0-2-3.5 3.94 3.94 0 0 1 1-2q-5.393-1.46 1-2.5 3.148 5.12 5.5 11 2 3 5 5a32.4 32.4 0 0 0 1.5 6l-2 1q1.575 2.403-2 2.5 2.538 2.101 2 5.5-9.008 1.561-11-8-3.548-.878-6-3.5a8.4 8.4 0 0 0-4-.5q-1.063-1.356-3-1-1.442-6.513-8-9a1346 1346 0 0 1-6-7q.334-3.921-3.5-5-1.114-2.911.5-5.5 4.095-1.093 8 .5.882 3.616 3.5 6-1.038-7.47 6-9 4.062.55 7.5 2" style="opacity:1"/><path fill="#8242dc" d="M297.5 470.5a94 94 0 0 1 22 6v3q.293 12.05 5 23-2.466-.32-4.5 1a34.3 34.3 0 0 1-1.5 8 18 18 0 0 1-3.5-2 15.7 15.7 0 0 1-2.5 4 12.4 12.4 0 0 0 4 2.5 111 111 0 0 1-5 6.5 116 116 0 0 1-4.5-3l-1.5.5q3.64 2.331 0 3.5-9.54-9.042-19-18 1.853-.332 3-2l3 1.5a35.7 35.7 0 0 0 10.5 9.5q2.21-3.624 6.5-3a6.85 6.85 0 0 0-1-4 26 26 0 0 0 3-5q3.18 2.058 3-2 2.466.32 4.5-1 3.987-8.307-5.5-9-5.78 1.507 0 2.5-2.9 1.175-4.5-1.5l-2 2q-2.873-4.102-3.5-9a4.93 4.93 0 0 1-3-.5q-1.5-3.5-5-5 6.78-2.63 2-8.5" style="opacity:1"/><path fill="#8046d6" d="M234.5 449.5q0 1 1 1a250 250 0 0 1 33 12q-2.466.32-4.5-1-.663 3.268-3 2-5.511 10.213 4.5 16 2.922 3.433 6 7 6.558 2.487 8 9 1.937-.356 3 1 2.51 3.009 5 6-.37 1.82-2 2a265 265 0 0 0-30-25 27.6 27.6 0 0 1 5-1.5 1217 1217 0 0 1-27.5-26.5q-.792-1.974 1.5-2" style="opacity:.992"/><path fill="#6414b5" d="M439.5 450.5a1443 1443 0 0 1-46 44 8.4 8.4 0 0 1 .5-4q7.239-5.542-2.5-5-.294-4.798-5-6-5.11 1.689-8.5 6a23.8 23.8 0 0 1-2.5-6q-5.476.369-10.5 0 .877 9.643-5 17-1.026-1.926.5-3.5-4.681-1.089-8-4.5a7.3 7.3 0 0 1-3 2q-2.857-.847-5-3-1.848.967-4 .5 3.063 2.912 2 6.5 1.783 1.393 4 1-.297 4.905 4.5 6 3.897 12.069 16.5 13v-3h6l-4 5q-3.354 1.333-6 4a44 44 0 0 0-2-1 190 190 0 0 0-10.5-13l-15-14a105 105 0 0 1-7.5-10q.356-1.937-1-3 3.19-.939 5-4 3.296 2.788 4 7 3.378 1.25 6.5 0a64 64 0 0 1 8 5l1-3q3.59 2.8 7.5 2a7.25 7.25 0 0 0 2.5-2q1.077-5.967-1.5-11.5l1-1.5q1.468 5.18 4.5 1 6.006 2.264 12 3a11 11 0 0 0 5.5-2q1.139-5.57 6-3 5.656-2.047 11-4 3.957-3.486 9-5.5 7.2-8.807 18-12.5-1.239-1.427-.5-3a14.3 14.3 0 0 1 6.5-2.5 36.6 36.6 0 0 0 4-6.5q4.702-2.285 10-2-1.115-5.174 4-5 1 3.479.5 7-8.15 4.721-13.5 12.5.834.574 1 1.5" style="opacity:1"/><path fill="#640fbe" d="M393.5 494.5v1a185 185 0 0 1-20 16h-6v3q-12.603-.931-16.5-13-4.797-1.095-4.5-6-2.217.393-4-1 1.063-3.588-2-6.5 2.152.467 4-.5 2.143 2.153 5 3a7.3 7.3 0 0 0 3-2q3.319 3.411 8 4.5-1.526 1.574-.5 3.5 5.877-7.357 5-17 5.024.369 10.5 0a23.8 23.8 0 0 0 2.5 6q3.39-4.311 8.5-6 4.706 1.202 5 6 9.739-.542 2.5 5a8.4 8.4 0 0 0-.5 4" style="opacity:1"/><path fill="#7b38dc" d="M268.5 462.5a148.4 148.4 0 0 1 24 5 27.2 27.2 0 0 1 5 3q4.78 5.87-2 8.5 3.5 1.5 5 5a4.93 4.93 0 0 0 3 .5q.627 4.898 3.5 9l2-2q1.6 2.675 4.5 1.5-5.78-.993 0-2.5 9.487.693 5.5 9-2.034 1.32-4.5 1 .18 4.058-3 2a26 26 0 0 1-3 5 6.85 6.85 0 0 1 1 4q-4.29-.624-6.5 3a35.7 35.7 0 0 1-10.5-9.5l-3-1.5q-1.147 1.668-3 2-1 0-1-1 1.63-.18 2-2-2.49-2.991-5-6a8.4 8.4 0 0 1 4 .5q2.452 2.622 6 3.5 1.992 9.561 11 8 .538-3.399-2-5.5 3.575-.097 2-2.5l2-1a32.4 32.4 0 0 1-1.5-6q-3-2-5-5-2.352-5.88-5.5-11 1.286-1.953 1.5-4-3.149-3.446-7.5-5-3.438-1.45-7.5-2-7.038 1.53-6 9-2.618-2.384-3.5-6-3.905-1.593-8-.5-1.614 2.589-.5 5.5 3.834 1.079 3.5 5-10.011-5.787-4.5-16 2.337 1.268 3-2 2.034 1.32 4.5 1" style="opacity:1"/><path fill="#7535c3" d="M443.5 449.5a585 585 0 0 0-17.5 18q-1.162 5.675.5 11a51 51 0 0 0-5 4.5q1.786 1.047 3 2.5 2.121 3.147-2 3 .329 1.763-1 3-3.303 1.92-6.5 0a29.5 29.5 0 0 1-4.5 2.5l1 1q-6.3 1.237-11.5-2.5-2.263 3.629-6.5 3v-1a1443 1443 0 0 0 46-44q1.461-1.702 3.5-3 .696.891.5 2" style="opacity:1"/><path fill="#7a44c6" d="M446.5 481.5a115 115 0 0 1-11 10q-.467-1.467-2-2l-8 2.5q-.803 3.163-3 1.5a17.5 17.5 0 0 1-6 3 10.3 10.3 0 0 0-1.5 4 3.94 3.94 0 0 0-2-1 158 158 0 0 1-25.5 9q-2.388.124-5-1-6.396 3.781 1 4v3q-3.781.09-7-2a1113 1113 0 0 1-7 4l4-5a185 185 0 0 0 20-16q4.237.629 6.5-3 5.2 3.737 11.5 2.5l-1-1a29.5 29.5 0 0 0 4.5-2.5q3.197 1.92 6.5 0 1.329-1.237 1-3 4.121.147 2-3 6.163-1.36 12-1a67.6 67.6 0 0 1 8.5-5q1.075.816 1.5 2" style="opacity:1"/><path fill="#8a5cd1" d="M435.5 491.5a516 516 0 0 0-30 24q-1.437-.679-2.5-2a7.25 7.25 0 0 1-2.5 2 9.4 9.4 0 0 0-3-3 65.5 65.5 0 0 0-11.5 9 32.6 32.6 0 0 0-10-3q-6.197 1.899-13.5 3-.21 2.436 2 3.5-1.212 2.559-4 2.5a25 25 0 0 0 1-8q.975.456 2 1 2.646-2.667 6-4 3.483-1.974 7-4 3.219 2.09 7 2v-3q-7.396-.219-1-4 2.612 1.124 5 1a158 158 0 0 0 25.5-9 3.94 3.94 0 0 1 2 1 10.3 10.3 0 0 1 1.5-4 17.5 17.5 0 0 0 6-3q2.197 1.663 3-1.5l8-2.5q1.533.533 2 2" style="opacity:1"/><path fill="#8c5be2" d="M319.5 479.5q1.494-.129 2.5 1 7.2 19.071 10 39-2 2-4 0-2.989 3.476-3.5 8h-4v4h-4a4.93 4.93 0 0 0-.5-3q-3.051-2.455-4.5-6a111 111 0 0 0 5-6.5 12.4 12.4 0 0 1-4-2.5 15.7 15.7 0 0 0 2.5-4 18 18 0 0 0 3.5 2 34.3 34.3 0 0 0 1.5-8q2.034-1.32 4.5-1-4.707-10.95-5-23" style="opacity:1"/><path fill="#7d40cd" d="m325.5 480.5 3 2a105 105 0 0 0 7.5 10l15 14a190 190 0 0 1 10.5 13 25 25 0 0 1-1 8h-1q-5.611-1.352-6 4-7.112.26-5.5 7-1.077 1.426-2.5.5a3610 3610 0 0 1-5-15q-1.844-3.899-5-6.5a269 269 0 0 0-9.5-31 18.5 18.5 0 0 1-.5-6" style="opacity:1"/><path fill="#996fe5" d="M319.5 476.5h4q.04 2.549 2 4a18.5 18.5 0 0 0 .5 6 269 269 0 0 1 9.5 31l7 30-.5 4q-2.529-3.783-4 1-1.665-2.305-4.5-2a55259 55259 0 0 0-28-27q3.64-1.169 0-3.5l1.5-.5a116 116 0 0 0 4.5 3q1.449 3.545 4.5 6 .724 1.422.5 3h4v-4h4q.511-4.524 3.5-8 2 2 4 0-2.8-19.929-10-39-1.006-1.129-2.5-1z" style="opacity:.988"/><path fill="#9773d4" d="M405.5 515.5a84790 84790 0 0 0-48 39q-1.426-2.128-1-5h-4a270 270 0 0 0 7-22h1q2.788.059 4-2.5-2.21-1.064-2-3.5 7.303-1.101 13.5-3a32.6 32.6 0 0 1 10 3 65.5 65.5 0 0 1 11.5-9 9.4 9.4 0 0 1 3 3 7.25 7.25 0 0 0 2.5-2q1.063 1.321 2.5 2" style="opacity:1"/><path fill="#7b49c5" d="M335.5 517.5q3.156 2.601 5 6.5a3610 3610 0 0 0 5 15q1.423.926 2.5-.5-1.612-6.74 5.5-7 .389-5.352 6-4a270 270 0 0 1-7 22h4q-.426 2.872 1 5-6.825 7.246-17 4.5a83 83 0 0 1-7-8.5q2.835-.305 4.5 2 1.471-4.783 4-1l.5-4z" style="opacity:1"/></svg>